# xmcd
# 
# Track frame offsets:
#     150
#     14162
#     25894
#     41327
#     61893
#     78203
#     96108
#     113684
#     136766
#     171661
#     189505
#     205122
#     230322
#     250087
#     267017
#     283854
#     298440
#     320444
# 
# Disc length: 4529
# 
# Revision: 0
# Processed by: cddbd v1.5.2PL0 Copyright (c) Steve Scherf et al.
# Submitted via: BonkEnc v1.0
# 
DISCID=0011af12
DTITLE=Robert Earl Keen - Greatest Hits
DYEAR=2007
DGENRE=Country
TTITLE0=No Kinda Dancer
TTITLE1=Willie
TTITLE2=Armadillo Jackal
TTITLE3=Paint The Town Beige
TTITLE4=Whenever Kindness Fails
TTITLE5=Corpus Christi Bay
TTITLE6=Merry Christmas
TTITLE7=The Road Intro
TTITLE8=The Road Goes On Forever
TTITLE9=Furnace Fan
TTITLE10=All I Have Is Today
TTITLE11=Let The Music Play
TTITLE12=For Love
TTITLE13=Mr. Wolf And Mama Bear
TTITLE14=Ride
TTITLE15=Feeling Good Again
TTITLE16=Gringo Honeymoon
TTITLE17=I'm Comin' Home
EXTD=
EXTT0=
EXTT1=
EXTT2=
EXTT3=
EXTT4=
EXTT5=
EXTT6=
EXTT7=
EXTT8=
EXTT9=
EXTT10=
EXTT11=
EXTT12=
EXTT13=
EXTT14=
EXTT15=
EXTT16=
EXTT17=
PLAYORDER=
